<?xml version="1.0" encoding="UTF-8"?>
<svg xmlns="http://www.w3.org/2000/svg" xmlns:xlink="http://www.w3.org/1999/xlink" viewBox="0 0 50 50" width="50px" height="50px">
<g id="surface115955544">
<path style=" stroke:none;fill-rule:nonzero;fill:rgb(30.588236%,59.215689%,100%);fill-opacity:1;" d="M 15 41.667969 L 6.667969 41.667969 L 6.667969 16.667969 L 15 16.667969 Z M 10.835938 13.332031 C 8.53125 13.332031 6.667969 11.464844 6.667969 9.164062 C 6.667969 6.863281 8.535156 5 10.835938 5 C 13.132812 5 15 6.867188 15 9.164062 C 15 11.464844 13.132812 13.332031 10.835938 13.332031 Z M 45 41.667969 L 36.988281 41.667969 L 36.988281 29.5 C 36.988281 26.597656 36.933594 22.867188 32.824219 22.867188 C 28.652344 22.867188 28.011719 26.027344 28.011719 29.289062 L 28.011719 41.667969 L 20 41.667969 L 20 16.648438 L 27.691406 16.648438 L 27.691406 20.066406 L 27.796875 20.066406 C 28.867188 18.101562 31.484375 16.027344 35.382812 16.027344 C 43.5 16.027344 45 21.207031 45 27.945312 C 45 27.945312 45 41.667969 45 41.667969 Z M 45 41.667969 "/>
</g>
</svg>
