<?xml version="1.0" encoding="UTF-8"?>
<svg xmlns="http://www.w3.org/2000/svg" xmlns:xlink="http://www.w3.org/1999/xlink" viewBox="0 0 50 50" width="50px" height="50px">
<g id="surface115670489">
<path style=" stroke:none;fill-rule:nonzero;fill:rgb(30.588236%,59.215689%,100%);fill-opacity:1;" d="M 41.867188 11.578125 C 37.828125 8.328125 31.4375 7.78125 31.167969 7.757812 C 30.742188 7.71875 30.335938 7.960938 30.160156 8.351562 C 30.15625 8.363281 29.796875 9.398438 29.453125 10.398438 C 34.148438 11.21875 37.339844 13.042969 37.507812 13.144531 C 38.304688 13.605469 38.570312 14.628906 38.105469 15.421875 C 37.796875 15.953125 37.238281 16.25 36.667969 16.25 C 36.382812 16.25 36.09375 16.179688 35.832031 16.023438 C 35.785156 15.996094 31.105469 13.332031 25.003906 13.332031 C 18.898438 13.332031 14.21875 16 14.171875 16.023438 C 13.375 16.488281 12.355469 16.214844 11.894531 15.417969 C 11.433594 14.625 11.703125 13.605469 12.496094 13.144531 C 12.664062 13.042969 15.867188 11.214844 20.574219 10.394531 C 20.210938 9.382812 19.84375 8.363281 19.839844 8.351562 C 19.664062 7.960938 19.257812 7.714844 18.832031 7.757812 C 18.5625 7.777344 12.171875 8.328125 8.078125 11.621094 C 5.941406 13.597656 1.667969 25.152344 1.667969 35.144531 C 1.667969 35.320312 1.710938 35.492188 1.800781 35.648438 C 4.75 40.828125 12.796875 42.1875 14.632812 42.246094 C 14.644531 42.246094 14.652344 42.246094 14.664062 42.246094 C 14.988281 42.246094 15.292969 42.089844 15.484375 41.828125 L 17.464844 39.144531 C 13.117188 38.09375 10.816406 36.445312 10.679688 36.34375 C 9.9375 35.800781 9.777344 34.757812 10.324219 34.015625 C 10.867188 33.277344 11.90625 33.113281 12.648438 33.65625 C 12.707031 33.695312 16.953125 36.667969 25 36.667969 C 33.078125 36.667969 37.3125 33.683594 37.351562 33.652344 C 38.09375 33.117188 39.136719 33.277344 39.679688 34.023438 C 40.21875 34.761719 40.0625 35.796875 39.324219 36.339844 C 39.1875 36.441406 36.898438 38.089844 32.558594 39.136719 L 34.515625 41.828125 C 34.707031 42.089844 35.011719 42.246094 35.335938 42.246094 C 35.347656 42.246094 35.359375 42.246094 35.367188 42.242188 C 37.203125 42.183594 45.25 40.828125 48.199219 35.644531 C 48.289062 35.492188 48.332031 35.320312 48.332031 35.144531 C 48.332031 25.152344 44.058594 13.597656 41.867188 11.578125 Z M 18.332031 31.667969 C 16.492188 31.667969 15 29.800781 15 27.5 C 15 25.199219 16.492188 23.332031 18.332031 23.332031 C 20.175781 23.332031 21.667969 25.199219 21.667969 27.5 C 21.667969 29.800781 20.175781 31.667969 18.332031 31.667969 Z M 31.667969 31.667969 C 29.824219 31.667969 28.332031 29.800781 28.332031 27.5 C 28.332031 25.199219 29.824219 23.332031 31.667969 23.332031 C 33.507812 23.332031 35 25.199219 35 27.5 C 35 29.800781 33.507812 31.667969 31.667969 31.667969 Z M 31.667969 31.667969 "/>
</g>
</svg>
